<?xml version="1.0" standalone="no"?>
<!DOCTYPE svg PUBLIC "-//W3C//DTD SVG 20010904//EN"
 "http://www.w3.org/TR/2001/REC-SVG-20010904/DTD/svg10.dtd">
<svg version="1.0" xmlns="http://www.w3.org/2000/svg"
 width="64.000000pt" height="64.000000pt" viewBox="0 0 64.000000 64.000000"
 preserveAspectRatio="xMidYMid meet">

<g transform="translate(0.000000,64.000000) scale(0.100000,-0.100000)"
fill="#000000" stroke="none">
<path d="M180 570 c-11 -11 -20 -28 -20 -37 0 -10 44 -62 97 -115 l98 -98 -99
-99 c-87 -87 -98 -102 -92 -125 7 -29 39 -50 64 -41 10 3 71 58 135 123 83 84
117 126 117 142 0 29 -235 270 -263 270 -9 0 -26 -9 -37 -20z"/>
</g>
</svg>
